<svg xmlns="http://www.w3.org/2000/svg" version="1.1" xmlns:xlink="http://www.w3.org/1999/xlink" xmlns:svgjs="http://svgjs.com/svgjs" width="512" height="512" x="0" y="0" viewBox="0 0 52 52" style="enable-background:new 0 0 512 512" xml:space="preserve" class=""><g><path fill="#626681" d="M44.891 13.278V25.32c0 1.242-1.348 2.249-3.012 2.249H10.132c-1.663 0-3.011-1.007-3.011-2.249V13.278c0-1.242 1.348-2.249 3.011-2.249H41.88c1.384 0 2.54.693 2.89 1.634.087.197.122.406.122.615z" data-original="#626681" class=""></path><path fill="#4d5471" d="M9.809 16.89v-2.37c-1.51.123-2.688 1.066-2.688 2.225v8.576c0 1.242 1.348 2.249 3.011 2.249H41.88c1.664 0 3.012-1.007 3.012-2.249v-8.43z" data-original="#4d5471" class=""></path><path fill="#444b63" d="M11.225 50H9.2a1.5 1.5 0 0 1-1.5-1.5v-1.575a1.5 1.5 0 0 1 1.5-1.5h2.024a1.5 1.5 0 0 1 1.5 1.5V48.5a1.5 1.5 0 0 1-1.5 1.5zM42.799 50h-2.024a1.5 1.5 0 0 1-1.5-1.5v-1.575a1.5 1.5 0 0 1 1.5-1.5H42.8a1.5 1.5 0 0 1 1.5 1.5V48.5a1.5 1.5 0 0 1-1.5 1.5z" data-original="#444b63"></path><path fill="#626681" d="M44.891 28.276v8.576c0 1.242-1.348 2.249-3.012 2.249H10.132c-1.663 0-3.011-1.007-3.011-2.25v-8.575c0-1.242 1.348-2.249 3.011-2.249H41.88c1.384 0 2.54.693 2.89 1.634.087.197.122.406.122.615z" data-original="#626681" class=""></path><path fill="#4d5471" d="M44.891 28.276v5.15l-37.77-2.052s-1.349-.915-1.857-1.033l1.857-.183 27.036-2.588s6.41.026 10.612.091c.087.197.122.406.122.615z" data-original="#4d5471" class=""></path><path fill="#63affa" d="M46.786 31.37H5.214A2.915 2.915 0 0 1 2.3 28.455v-7.243a2.915 2.915 0 0 1 2.915-2.915h41.572a2.915 2.915 0 0 1 2.915 2.915v7.243a2.915 2.915 0 0 1-2.915 2.915z" data-original="#63affa" class=""></path><path fill="#529ffb" d="M46.327 18.297h-9.894c-1.134 0-2.054.687-2.054 1.533 0 3.851-4.181 6.973-9.34 6.973H5.044c-1.515 0-2.744.917-2.744 2.049 0 1.39 1.51 2.518 3.374 2.518h40.654c1.864 0 3.374-1.127 3.374-2.518v-8.036c0-1.391-1.51-2.519-3.374-2.519z" data-original="#529ffb" class=""></path><path fill="#63affa" d="M46.786 47.712H5.214A2.915 2.915 0 0 1 2.3 44.797v-7.243a2.915 2.915 0 0 1 2.915-2.915h41.572a2.915 2.915 0 0 1 2.915 2.915v7.243a2.915 2.915 0 0 1-2.915 2.915z" data-original="#63affa" class=""></path><path fill="#529ffb" d="M46.327 34.639H38.44c-1.074 0-1.944.65-1.944 1.451 0 3.656-3.97 6.619-8.865 6.619H5.627c-1.838 0-3.328 1.112-3.328 2.484 0 1.392 1.51 2.52 3.374 2.52h40.654c1.864 0 3.374-1.128 3.374-2.52v-8.036c0-1.39-1.51-2.518-3.374-2.518z" data-original="#529ffb" class=""></path><path fill="#82c8fb" d="M19.756 21.163c0 1.033-4.495 2.736-6.975 2.736s-4.491-.837-4.491-1.87c0-1.034 2.01-1.872 4.491-1.872s6.975-.027 6.975 1.006zM19.756 37.341c0 1.034-4.495 2.737-6.975 2.737S8.29 39.24 8.29 38.207c0-1.034 2.01-1.871 4.491-1.871s6.975-.028 6.975 1.005z" data-original="#82c8fb" class=""></path><path fill="#4d5471" d="M6.782 24.834c0-.851.69-1.541 1.541-1.541h16.73a1.541 1.541 0 0 1 0 3.082H8.322c-.85 0-1.54-.69-1.54-1.541zM6.782 40.912c0-.851.69-1.541 1.541-1.541h16.73a1.541 1.541 0 0 1 0 3.082H8.322c-.85 0-1.54-.69-1.54-1.541z" data-original="#4d5471" class=""></path><circle cx="43.653" cy="41.175" r="2.075" fill="#f7cc6d" data-original="#f7cc6d" class=""></circle><path fill="#f4bc5f" d="M44.658 39.37v.56a1.885 1.885 0 0 1-1.885 1.885H41.69a2.07 2.07 0 0 0 2.523 1.362 2.055 2.055 0 0 0 1.45-1.47 2.067 2.067 0 0 0-1.004-2.336z" data-original="#f4bc5f"></path><circle cx="37.754" cy="41.175" r="2.075" fill="#fc4a32" data-original="#fc4a32"></circle><path fill="#e23e2d" d="M38.76 39.37v.56a1.885 1.885 0 0 1-1.886 1.885H35.79a2.07 2.07 0 0 0 2.523 1.362 2.055 2.055 0 0 0 1.45-1.47 2.067 2.067 0 0 0-1.004-2.336z" data-original="#e23e2d" class=""></path><circle cx="43.653" cy="24.834" r="2.075" fill="#f7cc6d" data-original="#f7cc6d" class=""></circle><path fill="#f4bc5f" d="M44.658 23.03v.559a1.885 1.885 0 0 1-1.885 1.884H41.69a2.07 2.07 0 0 0 2.523 1.362 2.055 2.055 0 0 0 1.45-1.469 2.067 2.067 0 0 0-1.004-2.337z" data-original="#f4bc5f"></path><circle cx="37.754" cy="24.834" r="2.075" fill="#fc4a32" data-original="#fc4a32"></circle><path fill="#e23e2d" d="M38.76 23.03v.559a1.885 1.885 0 0 1-1.886 1.884H35.79a2.07 2.07 0 0 0 2.523 1.362 2.055 2.055 0 0 0 1.45-1.469 2.067 2.067 0 0 0-1.004-2.337z" data-original="#e23e2d" class=""></path><path fill="#63affa" d="M46.786 15.073H5.214A2.915 2.915 0 0 1 2.3 12.158V4.915A2.915 2.915 0 0 1 5.214 2h41.572A2.915 2.915 0 0 1 49.7 4.915v7.243a2.915 2.915 0 0 1-2.915 2.915z" data-original="#63affa" class=""></path><path fill="#529ffb" d="M46.327 2h-9.894c-1.134 0-2.054.687-2.054 1.533 0 3.851-4.181 6.973-9.34 6.973H5.044c-1.515 0-2.744.917-2.744 2.049 0 1.39 1.51 2.518 3.374 2.518h40.654c1.864 0 3.374-1.127 3.374-2.518V4.519C49.7 3.128 48.19 2 46.327 2z" data-original="#529ffb" class=""></path><path fill="#82c8fb" d="M19.756 4.866c0 1.033-4.495 2.736-6.975 2.736S8.29 6.765 8.29 5.732 10.3 3.86 12.78 3.86s6.975-.027 6.975 1.006z" data-original="#82c8fb" class=""></path><path fill="#4d5471" d="M6.782 8.537c0-.851.69-1.541 1.541-1.541h16.73a1.541 1.541 0 0 1 0 3.082H8.322c-.85 0-1.54-.69-1.54-1.541z" data-original="#4d5471" class=""></path><circle cx="43.653" cy="8.537" r="2.075" fill="#f7cc6d" data-original="#f7cc6d" class=""></circle><path fill="#f4bc5f" d="M44.658 6.732v.56a1.885 1.885 0 0 1-1.885 1.884H41.69a2.07 2.07 0 0 0 2.523 1.362 2.055 2.055 0 0 0 1.45-1.469 2.067 2.067 0 0 0-1.004-2.337z" data-original="#f4bc5f"></path><circle cx="37.754" cy="8.537" r="2.075" fill="#fc4a32" data-original="#fc4a32"></circle><path fill="#e23e2d" d="M38.76 6.732v.56a1.885 1.885 0 0 1-1.886 1.884H35.79a2.07 2.07 0 0 0 2.523 1.362 2.055 2.055 0 0 0 1.45-1.469 2.067 2.067 0 0 0-1.004-2.337z" data-original="#e23e2d" class=""></path></g></svg>