<svg xmlns="http://www.w3.org/2000/svg" version="1.1" xmlns:xlink="http://www.w3.org/1999/xlink" xmlns:svgjs="http://svgjs.com/svgjs" width="512" height="512" x="0" y="0" viewBox="0 0 512 512" style="enable-background:new 0 0 512 512" xml:space="preserve" class=""><g><path d="M226 482H75c-8.291 0-15-6.709-15-15s6.709-15 15-15h151c8.291 0 15 6.709 15 15s-6.709 15-15 15z" style="" fill="#1689fc" data-original="#1689fc" class=""></path><path d="M437 482H286c-8.291 0-15-6.709-15-15s6.709-15 15-15h151c8.291 0 15 6.709 15 15s-6.709 15-15 15z" style="" fill="#136ef1" data-original="#136ef1"></path><path d="M271 375v62c0 8.399-6.599 15-15 15s-15-6.601-15-15v-62c0-8.401 6.599-15 15-15s15 6.599 15 15z" style="" fill="#1689fc" data-original="#1689fc" class=""></path><path d="M271 375v62c0 8.399-6.599 15-15 15v-92c8.401 0 15 6.599 15 15z" style="" fill="#136ef1" data-original="#136ef1"></path><path d="M256 422c-24.901 0-45 20.099-45 45 0 24.899 20.099 45 45 45s45-20.101 45-45c0-24.901-20.099-45-45-45z" style="" fill="#00c8c8" data-original="#00c8c8" class=""></path><path d="M467 512c-24.814 0-45-20.186-45-45s20.186-45 45-45 45 20.186 45 45-20.186 45-45 45z" style="" fill="#00a1b2" data-original="#00a1b2"></path><path d="M467 482c-8.271 0-15-6.729-15-15s6.729-15 15-15 15 6.729 15 15-6.729 15-15 15z" style="" fill="#bfe1ff" data-original="#bfe1ff"></path><path d="M45 512c-24.814 0-45-20.186-45-45s20.186-45 45-45 45 20.186 45 45-20.186 45-45 45z" style="" fill="#00c8c8" data-original="#00c8c8" class=""></path><path d="M45 482c-8.271 0-15-6.729-15-15s6.729-15 15-15 15 6.729 15 15-6.729 15-15 15z" style="" fill="#e1f1fa" data-original="#e1f1fa"></path><path d="M467 120H45c-8.401 0-15 6.599-15 15v60c0 8.399 6.599 15 15 15h422c8.401 0 15-6.601 15-15v-60c0-8.401-6.599-15-15-15zM467 300H45c-8.401 0-15 6.599-15 15v30c0 24.899 20.099 45 45 45h362c24.901 0 45-20.101 45-45v-30c0-8.401-6.599-15-15-15z" style="" fill="#0053bf" data-original="#0053bf"></path><path d="M467 180H45c-24.901 0-45 20.099-45 45v60c0 24.899 20.099 45 45 45h422c24.901 0 45-20.101 45-45v-60c0-24.901-20.099-45-45-45z" style="" fill="#65b1fc" data-original="#65b1fc" class=""></path><path d="M301 467c0 24.899-20.099 45-45 45v-90c24.901 0 45 20.099 45 45z" style="" fill="#00a1b2" data-original="#00a1b2"></path><path d="M256 482c-8.271 0-15-6.729-15-15s6.729-15 15-15 15 6.729 15 15-6.729 15-15 15z" style="" fill="#e1f1fa" data-original="#e1f1fa"></path><path d="M271 467c0-8.271-6.729-15-15-15v30c8.271 0 15-6.729 15-15z" style="" fill="#bfe1ff" data-original="#bfe1ff"></path><path d="M482 135v60c0 8.399-6.599 15-15 15H256v-90h211c8.401 0 15 6.599 15 15zM482 315v30c0 24.899-20.099 45-45 45H256v-90h211c8.401 0 15 6.599 15 15z" style="" fill="#05377f" data-original="#05377f"></path><path d="M512 225v60c0 24.899-20.099 45-45 45H256V180h211c24.901 0 45 20.099 45 45z" style="" fill="#1689fc" data-original="#1689fc" class=""></path><path d="M467 0H45C20.099 0 0 20.099 0 45v60c0 24.899 20.099 45 45 45h422c24.901 0 45-20.101 45-45V45c0-24.901-20.099-45-45-45z" style="" fill="#65b1fc" data-original="#65b1fc" class=""></path><path d="M512 45v60c0 24.899-20.099 45-45 45H256V0h211c24.901 0 45 20.099 45 45z" style="" fill="#1689fc" data-original="#1689fc" class=""></path><circle cx="75" cy="75" r="15" style="" fill="#e1f1fa" data-original="#e1f1fa"></circle><circle cx="136" cy="75" r="15" style="" fill="#0053bf" data-original="#0053bf"></circle><circle cx="196" cy="75" r="15" style="" fill="#0053bf" data-original="#0053bf"></circle><path d="M437 90H286c-8.291 0-15-6.709-15-15s6.709-15 15-15h151c8.291 0 15 6.709 15 15s-6.709 15-15 15z" style="" fill="#05377f" data-original="#05377f"></path><circle cx="75" cy="255" r="15" style="" fill="#e1f1fa" data-original="#e1f1fa"></circle><circle cx="136" cy="255" r="15" style="" fill="#0053bf" data-original="#0053bf"></circle><circle cx="196" cy="255" r="15" style="" fill="#0053bf" data-original="#0053bf"></circle><path d="M437 270H286c-8.291 0-15-6.709-15-15s6.709-15 15-15h151c8.291 0 15 6.709 15 15s-6.709 15-15 15z" style="" fill="#05377f" data-original="#05377f"></path></g></svg>