<?xml version="1.0" encoding="utf-8"?>
<svg version="1.1" id="Layer_1" x="0px" y="0px" width="100%" viewBox="0 0 730 715" enable-background="new 0 0 730 715" xmlns="http://www.w3.org/2000/svg">
  <path fill="#FE4747" opacity="1.000000" stroke="none" d=" M500.519958,677.527466 C463.148193,693.279480 424.619690,702.494934 384.460602,704.308899 C286.253235,708.744873 200.463440,678.146973 128.634918,610.982544 C65.006088,551.485413 28.730721,477.689392 21.087761,390.842041 C12.145108,289.226257 42.234577,199.867905 110.937927,124.493149 C164.957535,65.227989 232.379486,29.357986 311.747467,16.994677 C380.877777,6.226105 447.469849,15.457809 511.077942,44.863956 C545.222290,60.648960 575.947327,81.549309 603.170593,107.534256 C657.516602,159.408310 692.227600,222.219864 705.564697,296.104523 C719.560791,373.639832 709.021729,448.106415 672.422607,518.184387 C634.160767,591.445923 576.636963,644.333435 500.519958,677.527466 z"/>
  <path fill="#020000" opacity="1.000000" stroke="none" d=" M419.885620,301.920593 C422.734985,297.448669 425.757355,293.479095 428.082764,289.136353 C429.777191,285.971954 430.779419,287.500610 431.828033,289.164795 C437.107574,297.543762 442.269257,305.996887 447.516724,314.396210 C458.609467,332.151672 469.740448,349.883240 480.830872,367.640137 C483.420288,371.786041 485.910461,375.993866 488.576660,380.388092 C490.169769,378.304047 489.572968,376.405975 489.575745,374.653198 C489.619415,347.322662 489.712097,319.991211 489.500153,292.662231 C489.465515,288.197113 490.715088,286.903168 495.101105,287.147705 C501.746429,287.518158 508.430969,287.367706 515.092224,287.190399 C518.215881,287.107269 519.477417,287.884796 519.470215,291.341736 C519.370911,339.003387 519.389282,386.665375 519.487549,434.327026 C519.492432,436.699921 518.685486,437.078461 516.676147,437.062988 C508.010864,436.996185 499.344055,436.970642 490.679596,437.077209 C488.674896,437.101868 487.774231,436.162354 486.839813,434.621033 C481.872589,426.427612 476.686554,418.364502 471.842285,410.100311 C470.297394,407.464813 468.336823,407.079712 465.667908,407.093658 C450.669800,407.172028 435.671082,407.131317 420.672577,407.131226 C419.055511,407.131226 417.438446,407.131226 415.380371,407.131226 C417.215179,401.485107 420.708191,397.379974 423.418823,393.015442 C426.004730,388.851715 428.774353,384.693970 431.249481,380.456268 C433.093140,377.299805 435.240295,376.690582 438.470398,376.729980 C442.232330,376.775848 447.840668,378.450073 449.291870,375.999695 C450.830231,373.402191 446.256622,369.750641 444.378296,366.555023 C440.347870,359.698120 436.077545,352.982239 432.045685,346.126160 C430.263550,343.095642 429.235260,344.194000 427.858368,346.409943 C418.973755,360.708496 410.005402,374.955078 401.110870,389.247498 C391.684814,404.393982 382.293610,419.562286 372.937836,434.752228 C371.967316,436.327942 370.873108,437.044342 368.951416,437.041351 C317.958649,436.961914 266.965820,436.938904 215.972992,436.895477 C215.855225,436.895386 215.737595,436.736694 215.331238,436.444458 C227.492645,416.853607 239.667877,397.240509 252.184570,377.077332 C243.142838,377.077332 234.593414,377.077332 225.322189,377.077332 C227.378632,371.107910 231.269241,366.955811 233.877396,362.118591 C235.980392,358.218231 238.906006,354.730469 240.745560,350.728241 C242.408539,347.110138 244.909470,346.723785 248.301910,346.732910 C278.604645,346.814667 308.907654,346.780701 339.210602,346.780731 C347.325378,346.780762 355.440155,346.780731 364.294617,346.780731 C358.205109,356.589752 352.475037,365.762543 346.815552,374.978668 C345.487762,377.140869 343.458984,376.799316 341.501343,376.801025 C325.169647,376.815277 308.836823,376.908539 292.507141,376.727875 C289.143158,376.690674 287.016663,377.641296 285.295532,380.534760 C280.735718,388.200287 276.007111,395.767517 271.232056,403.301880 C269.371124,406.238159 269.812622,407.188141 273.423645,407.175140 C299.254089,407.082092 325.085449,407.052582 350.915192,407.217102 C354.191895,407.237976 355.755707,405.542511 357.147858,403.311401 C365.454803,389.998199 373.683319,376.636078 381.945984,363.295197 C394.547302,342.949097 407.155029,322.606934 419.885620,301.920593 z"/>
  <path fill="#030101" opacity="1.000000" stroke="none" d=" M198.989014,285.963745 C212.021072,285.963745 212.020844,285.963745 212.020950,298.717712 C212.021149,323.044922 211.948883,347.372589 212.097961,371.698883 C212.121201,375.489960 211.259247,376.879517 207.158264,376.865204 C165.502579,376.720032 123.845093,376.635773 82.191353,376.955505 C76.876755,376.996277 76.513023,373.030060 74.593964,370.481140 C71.440125,366.292236 69.539902,361.140442 66.287949,357.048859 C61.275673,350.742493 60.414951,343.802307 60.585037,336.115417 C60.924065,320.793457 60.767418,305.457886 60.620419,290.129852 C60.589809,286.938171 61.388798,285.774292 64.756050,285.887939 C72.079208,286.135101 79.424484,286.168427 86.744606,285.880127 C90.480377,285.733002 91.074348,287.232635 91.047409,290.512390 C90.907814,307.506989 91.083984,324.504395 90.904411,341.498230 C90.864212,345.302826 91.776466,346.689728 95.854477,346.663971 C122.846611,346.493317 149.840729,346.505890 176.833145,346.652618 C180.754944,346.673920 181.955750,345.519165 181.909668,341.566101 C181.711624,324.572693 181.941528,307.574249 181.738403,290.580963 C181.693237,286.802643 182.771210,285.593933 186.500961,285.892426 C190.474243,286.210388 194.492722,285.963837 198.989014,285.963745 z"/>
  <path fill="#040101" opacity="1.000000" stroke="none" d=" M613.322693,287.238647 C620.616577,287.238281 627.449890,287.408020 634.268738,287.168274 C637.802307,287.044037 639.181702,287.816986 639.169800,291.772003 C639.028259,338.730042 639.051514,385.688751 639.138550,432.647034 C639.144409,435.796814 638.447021,437.087555 635.026001,436.971741 C627.873901,436.729614 620.701721,436.723785 613.550110,436.973175 C610.039368,437.095551 609.021912,435.985107 609.057312,432.483337 C609.225830,415.833099 608.989380,399.178131 609.232178,382.529724 C609.294312,378.269592 608.374695,376.843353 603.807800,376.915649 C585.661743,377.202942 567.507507,376.934418 549.358643,377.113647 C545.474854,377.152008 543.376587,375.712067 541.552368,372.389130 C538.075073,366.054962 534.166809,359.951599 530.290588,353.845612 C529.046631,351.886017 527.958130,349.932526 527.315430,347.624084 C528.927795,346.619202 530.600525,347.114929 532.164368,347.112335 C555.810059,347.073364 579.458618,346.890961 603.099426,347.234558 C608.414062,347.311829 609.329041,345.645569 609.243530,340.833984 C608.953552,324.520203 609.160095,308.198029 609.104858,291.879303 C609.095703,289.172607 609.007690,286.693481 613.322693,287.238647 z"/>
  <path fill="#030101" opacity="1.000000" stroke="none" d=" M156.000000,406.993652 C173.311188,406.993469 190.122421,406.974945 206.933456,407.023682 C208.503510,407.028229 210.551407,406.222656 211.543030,407.818787 C212.533768,409.413513 210.511139,410.391571 209.802963,411.594147 C205.196396,419.416504 200.427292,427.143738 195.874054,434.996399 C194.784653,436.875183 193.464890,437.338684 191.471176,437.336853 C149.193604,437.297546 106.915916,437.280396 64.638435,437.359863 C61.627239,437.365509 60.546864,436.505554 60.629234,433.411957 C60.819656,426.259827 60.898804,419.090393 60.603783,411.945312 C60.441372,408.011963 61.661926,406.887207 65.618996,406.908142 C95.578644,407.066711 125.539513,406.994202 156.000000,406.993652 z"/>
  <path fill="#010000" opacity="1.000000" stroke="none" d=" M268.372223,306.440796 C272.322968,300.305206 276.269745,294.588257 279.671936,288.563751 C280.913177,286.365784 282.236633,285.948639 284.369598,285.950134 C323.146576,285.977722 361.923523,285.966034 400.700500,285.991730 C401.796387,285.992462 403.186096,285.466919 403.934692,286.582031 C404.897034,288.015656 403.483002,289.111542 402.855133,290.130402 C397.947235,298.094604 392.778748,305.901917 388.020355,313.952454 C386.447052,316.614258 384.340271,316.352722 382.078857,316.354431 C357.947266,316.372864 333.815674,316.366150 309.684082,316.366180 C295.870819,316.366180 282.057434,316.394684 268.244537,316.324982 C266.712036,316.317261 264.540771,317.264679 263.764709,315.381348 C263.104431,313.778900 264.803802,312.420929 265.647949,311.034332 C266.509888,309.618530 267.319885,308.171204 268.372223,306.440796 z"/>
</svg>
