<?xml version="1.0" encoding="utf-8"?>
<svg version="1.1" id="Layer_1" xmlns="http://www.w3.org/2000/svg" xmlns:xlink="http://www.w3.org/1999/xlink" x="0px" y="0px"
	 viewBox="0 0 64 64" style="enable-background:new 0 0 64 64;" xml:space="preserve">
<style type="text/css">
	.st0{fill:#FF4747;}
	.st1{fill:#90ACE1;}
</style>
<g transform="matrix(.85235 0 0 .85399 433.01 324.15)">
	<g transform="matrix(1.08334 0 0 1.08334-810.1-925.74)">
		<path class="st0" d="M306.9,525c-0.9-0.7-2-1.1-3.2-1.1c-2.8,0-5.1,2.3-5.2,5.1c-2.9,1.1-5,3.9-5,7.2c0,3.9,2.9,7.2,6.6,7.7v0.1
			h26.5v0c3.7-0.2,6.6-3.3,6.6-7.1c0-3.6-2.7-6.7-6.2-7.1c0-0.2,0-0.4,0-0.7c0-5.7-4.7-10.2-10.5-10.2
			C312.3,518.9,308.6,521.4,306.9,525"/>
	</g>
	<g>
		<path class="st1" d="M-480.3-333.4l-3.5,3.4c-0.7,0.7-1.1,1.8-0.8,2.8c0.4,1.6,2,2.6,3.6,2.2c1.6-0.4,2.6-2,2.2-3.6l-1.1-4.7
			C-480-333.4-480.2-333.5-480.3-333.4"/>
		<path class="st1" d="M-472.5-325.8l-3.2,3.6c-0.7,0.8-0.9,1.9-0.6,2.9c0.5,1.6,2.2,2.4,3.8,1.9c1.6-0.5,2.4-2.2,1.9-3.8l-1.5-4.6
			C-472.2-325.9-472.4-325.9-472.5-325.8"/>
		<path class="st1" d="M-463.2-334.7l-3.3,3.5c-0.7,0.7-1,1.8-0.7,2.9c0.5,1.6,2.1,2.5,3.7,2c1.6-0.5,2.5-2.1,2-3.7l-1.3-4.7
			C-462.9-334.8-463.1-334.9-463.2-334.7"/>
	</g>
</g>
</svg>
