<?xml version="1.0" encoding="utf-8"?>
<!-- Generator: Adobe Illustrator 27.4.1, SVG Export Plug-In . SVG Version: 6.00 Build 0)  -->
<svg version="1.1" id="Layer_1" xmlns="http://www.w3.org/2000/svg" xmlns:xlink="http://www.w3.org/1999/xlink" x="0px" y="0px"
	 viewBox="0 0 64 64" style="enable-background:new 0 0 64 64;" xml:space="preserve">
<style type="text/css">
	.st0{fill:#FF4747;}
	.st1{fill:#90ACE1;}
</style>
<g transform="matrix(.85235 0 0 .85399 433.01 324.15)">
	<g transform="matrix(1.08334 0 0 1.08334-810.1-925.74)">
		<path class="st0" d="M304.2,514.7c-1.4-1.1-3.1-1.7-5-1.7c-4.4,0-8,3.6-8.2,8c-4.6,1.7-7.9,6.1-7.9,11.3c0,6.1,4.6,11.3,10.4,12.1
			v0.2h41.7l0,0c5.8-0.3,10.4-5.2,10.4-11.2c0-5.7-4.3-10.5-9.8-11.2c0-0.3,0-0.6,0-1.1c0-9-7.4-16.1-16.5-16.1
			C312.7,505.1,306.9,509,304.2,514.7"/>
	</g>
	<g>
		<path class="st1" d="M-484.8-331l-5.5,5.4c-1.1,1.1-1.7,2.8-1.3,4.4c0.6,2.5,3.1,4.1,5.7,3.5c2.5-0.6,4.1-3.1,3.5-5.7l-1.7-7.4
			C-484.3-331-484.6-331.2-484.8-331"/>
		<path class="st1" d="M-472.5-319.1l-5,5.7c-1.1,1.3-1.4,3-0.9,4.6c0.8,2.5,3.5,3.8,6,3c2.5-0.8,3.8-3.5,3-6l-2.4-7.2
			C-472-319.2-472.3-319.2-472.5-319.1"/>
		<path class="st1" d="M-457.9-333.1l-5.2,5.5c-1.1,1.1-1.6,2.8-1.1,4.6c0.8,2.5,3.3,3.9,5.8,3.1c2.5-0.8,3.9-3.3,3.1-5.8l-2-7.4
			C-457.4-333.2-457.7-333.4-457.9-333.1"/>
	</g>
</g>
</svg>
